<svg xmlns="http://www.w3.org/2000/svg" xmlns:xlink="http://www.w3.org/1999/xlink" width="1284" zoomAndPan="magnify" viewBox="0 0 962.88 2083.499965" height="2778" preserveAspectRatio="xMidYMid meet" version="1.0"><defs><g/><clipPath id="431880b6da"><path d="M 0.0546875 0 L 962.703125 0 L 962.703125 2083 L 0.0546875 2083 Z M 0.0546875 0 " clip-rule="nonzero"/></clipPath></defs><g clip-path="url(#431880b6da)"><path fill="#ffffff" d="M 0.0546875 0 L 962.824219 0 L 962.824219 2083 L 0.0546875 2083 Z M 0.0546875 0 " fill-opacity="1" fill-rule="nonzero"/><path fill="#ffffff" d="M 0.0546875 0 L 962.824219 0 L 962.824219 2083 L 0.0546875 2083 Z M 0.0546875 0 " fill-opacity="1" fill-rule="nonzero"/></g><g fill="#4caf50" fill-opacity="1"><g transform="translate(310.24409, 1039.728344)"><g><path d="M 48.5625 0 L 48.5 -28.328125 L 34.609375 -4.984375 L 29.671875 -4.984375 L 15.84375 -27.71875 L 15.84375 0 L 5.59375 0 L 5.59375 -47.21875 L 14.640625 -47.21875 L 32.3125 -17.875 L 49.71875 -47.21875 L 58.6875 -47.21875 L 58.8125 0 Z M 48.5625 0 "/></g></g></g><g fill="#4caf50" fill-opacity="1"><g transform="translate(374.661678, 1039.728344)"><g><path d="M 40.40625 -18.015625 C 40.40625 -17.878906 40.335938 -16.929688 40.203125 -15.171875 L 12.75 -15.171875 C 13.238281 -12.921875 14.40625 -11.144531 16.25 -9.84375 C 18.09375 -8.539062 20.390625 -7.890625 23.140625 -7.890625 C 25.023438 -7.890625 26.695312 -8.171875 28.15625 -8.734375 C 29.625 -9.296875 30.988281 -10.1875 32.25 -11.40625 L 37.84375 -5.328125 C 34.425781 -1.410156 29.429688 0.546875 22.859375 0.546875 C 18.773438 0.546875 15.15625 -0.25 12 -1.84375 C 8.851562 -3.445312 6.425781 -5.664062 4.71875 -8.5 C 3.007812 -11.332031 2.15625 -14.546875 2.15625 -18.140625 C 2.15625 -21.691406 3 -24.894531 4.6875 -27.75 C 6.375 -30.613281 8.6875 -32.84375 11.625 -34.4375 C 14.570312 -36.03125 17.867188 -36.828125 21.515625 -36.828125 C 25.066406 -36.828125 28.28125 -36.0625 31.15625 -34.53125 C 34.039062 -33.007812 36.300781 -30.816406 37.9375 -27.953125 C 39.582031 -25.097656 40.40625 -21.785156 40.40625 -18.015625 Z M 21.578125 -28.875 C 19.203125 -28.875 17.203125 -28.195312 15.578125 -26.84375 C 13.960938 -25.5 12.972656 -23.65625 12.609375 -21.3125 L 30.484375 -21.3125 C 30.128906 -23.601562 29.140625 -25.4375 27.515625 -26.8125 C 25.898438 -28.1875 23.921875 -28.875 21.578125 -28.875 Z M 21.578125 -28.875 "/></g></g></g><g fill="#4caf50" fill-opacity="1"><g transform="translate(417.224501, 1039.728344)"><g><path d="M 19.5 -36.828125 C 25.113281 -36.828125 29.425781 -35.488281 32.4375 -32.8125 C 35.457031 -30.132812 36.96875 -26.097656 36.96875 -20.703125 L 36.96875 0 L 27.109375 0 L 27.109375 -4.515625 C 25.128906 -1.140625 21.441406 0.546875 16.046875 0.546875 C 13.265625 0.546875 10.847656 0.0703125 8.796875 -0.875 C 6.753906 -1.820312 5.191406 -3.125 4.109375 -4.78125 C 3.035156 -6.445312 2.5 -8.335938 2.5 -10.453125 C 2.5 -13.828125 3.769531 -16.476562 6.3125 -18.40625 C 8.851562 -20.34375 12.773438 -21.3125 18.078125 -21.3125 L 26.4375 -21.3125 C 26.4375 -23.601562 25.738281 -25.367188 24.34375 -26.609375 C 22.957031 -27.847656 20.867188 -28.46875 18.078125 -28.46875 C 16.140625 -28.46875 14.238281 -28.160156 12.375 -27.546875 C 10.507812 -26.941406 8.925781 -26.125 7.625 -25.09375 L 3.84375 -32.4375 C 5.820312 -33.832031 8.191406 -34.910156 10.953125 -35.671875 C 13.722656 -36.441406 16.570312 -36.828125 19.5 -36.828125 Z M 18.6875 -6.546875 C 20.476562 -6.546875 22.070312 -6.957031 23.46875 -7.78125 C 24.863281 -8.613281 25.851562 -9.84375 26.4375 -11.46875 L 26.4375 -15.171875 L 19.21875 -15.171875 C 14.90625 -15.171875 12.75 -13.753906 12.75 -10.921875 C 12.75 -9.578125 13.273438 -8.507812 14.328125 -7.71875 C 15.390625 -6.9375 16.84375 -6.546875 18.6875 -6.546875 Z M 18.6875 -6.546875 "/></g></g></g><g fill="#4caf50" fill-opacity="1"><g transform="translate(458.842987, 1039.728344)"><g><path d="M 28.265625 -1.75 C 27.234375 -0.988281 25.960938 -0.414062 24.453125 -0.03125 C 22.941406 0.351562 21.359375 0.546875 19.703125 0.546875 C 15.378906 0.546875 12.035156 -0.554688 9.671875 -2.765625 C 7.316406 -4.972656 6.140625 -8.210938 6.140625 -12.484375 L 6.140625 -27.390625 L 0.546875 -27.390625 L 0.546875 -35.484375 L 6.140625 -35.484375 L 6.140625 -44.3125 L 16.65625 -44.3125 L 16.65625 -35.484375 L 25.703125 -35.484375 L 25.703125 -27.390625 L 16.65625 -27.390625 L 16.65625 -12.609375 C 16.65625 -11.085938 17.046875 -9.910156 17.828125 -9.078125 C 18.617188 -8.242188 19.738281 -7.828125 21.1875 -7.828125 C 22.84375 -7.828125 24.257812 -8.273438 25.4375 -9.171875 Z M 28.265625 -1.75 "/></g></g></g><g fill="#4caf50" fill-opacity="1"><g transform="translate(488.185025, 1039.728344)"><g><path d="M 48.5625 0 L 48.5 -28.328125 L 34.609375 -4.984375 L 29.671875 -4.984375 L 15.84375 -27.71875 L 15.84375 0 L 5.59375 0 L 5.59375 -47.21875 L 14.640625 -47.21875 L 32.3125 -17.875 L 49.71875 -47.21875 L 58.6875 -47.21875 L 58.8125 0 Z M 48.5625 0 "/></g></g></g><g fill="#4caf50" fill-opacity="1"><g transform="translate(552.602627, 1039.728344)"><g><path d="M 19.5 -36.828125 C 25.113281 -36.828125 29.425781 -35.488281 32.4375 -32.8125 C 35.457031 -30.132812 36.96875 -26.097656 36.96875 -20.703125 L 36.96875 0 L 27.109375 0 L 27.109375 -4.515625 C 25.128906 -1.140625 21.441406 0.546875 16.046875 0.546875 C 13.265625 0.546875 10.847656 0.0703125 8.796875 -0.875 C 6.753906 -1.820312 5.191406 -3.125 4.109375 -4.78125 C 3.035156 -6.445312 2.5 -8.335938 2.5 -10.453125 C 2.5 -13.828125 3.769531 -16.476562 6.3125 -18.40625 C 8.851562 -20.34375 12.773438 -21.3125 18.078125 -21.3125 L 26.4375 -21.3125 C 26.4375 -23.601562 25.738281 -25.367188 24.34375 -26.609375 C 22.957031 -27.847656 20.867188 -28.46875 18.078125 -28.46875 C 16.140625 -28.46875 14.238281 -28.160156 12.375 -27.546875 C 10.507812 -26.941406 8.925781 -26.125 7.625 -25.09375 L 3.84375 -32.4375 C 5.820312 -33.832031 8.191406 -34.910156 10.953125 -35.671875 C 13.722656 -36.441406 16.570312 -36.828125 19.5 -36.828125 Z M 18.6875 -6.546875 C 20.476562 -6.546875 22.070312 -6.957031 23.46875 -7.78125 C 24.863281 -8.613281 25.851562 -9.84375 26.4375 -11.46875 L 26.4375 -15.171875 L 19.21875 -15.171875 C 14.90625 -15.171875 12.75 -13.753906 12.75 -10.921875 C 12.75 -9.578125 13.273438 -8.507812 14.328125 -7.71875 C 15.390625 -6.9375 16.84375 -6.546875 18.6875 -6.546875 Z M 18.6875 -6.546875 "/></g></g></g><g fill="#4caf50" fill-opacity="1"><g transform="translate(594.221106, 1039.728344)"><g><path d="M 14.90625 -31.5 C 16.164062 -33.25 17.863281 -34.570312 20 -35.46875 C 22.132812 -36.375 24.597656 -36.828125 27.390625 -36.828125 L 27.390625 -27.109375 C 26.210938 -27.203125 25.425781 -27.25 25.03125 -27.25 C 22.007812 -27.25 19.644531 -26.40625 17.9375 -24.71875 C 16.226562 -23.03125 15.375 -20.503906 15.375 -17.140625 L 15.375 0 L 4.859375 0 L 4.859375 -36.296875 L 14.90625 -36.296875 Z M 14.90625 -31.5 "/></g></g></g><g fill="#4caf50" fill-opacity="1"><g transform="translate(623.293338, 1039.728344)"><g><path d="M 28.265625 -1.75 C 27.234375 -0.988281 25.960938 -0.414062 24.453125 -0.03125 C 22.941406 0.351562 21.359375 0.546875 19.703125 0.546875 C 15.378906 0.546875 12.035156 -0.554688 9.671875 -2.765625 C 7.316406 -4.972656 6.140625 -8.210938 6.140625 -12.484375 L 6.140625 -27.390625 L 0.546875 -27.390625 L 0.546875 -35.484375 L 6.140625 -35.484375 L 6.140625 -44.3125 L 16.65625 -44.3125 L 16.65625 -35.484375 L 25.703125 -35.484375 L 25.703125 -27.390625 L 16.65625 -27.390625 L 16.65625 -12.609375 C 16.65625 -11.085938 17.046875 -9.910156 17.828125 -9.078125 C 18.617188 -8.242188 19.738281 -7.828125 21.1875 -7.828125 C 22.84375 -7.828125 24.257812 -8.273438 25.4375 -9.171875 Z M 28.265625 -1.75 "/></g></g></g><path stroke-linecap="round" transform="matrix(0.548004, 0, 0, 0.548004, 257.446629, 1077.63031)" fill="none" stroke-linejoin="miter" d="M 3.996486 4.003454 L 813.489676 4.003454 " stroke="#000000" stroke-width="8" stroke-opacity="1" stroke-miterlimit="4"/><g fill="#4caf50" fill-opacity="1"><g transform="translate(382.620965, 1167.881701)"><g><path d="M 26.90625 -36.828125 C 31.40625 -36.828125 35.035156 -35.476562 37.796875 -32.78125 C 40.566406 -30.082031 41.953125 -26.082031 41.953125 -20.78125 L 41.953125 0 L 31.4375 0 L 31.4375 -19.15625 C 31.4375 -22.03125 30.804688 -24.175781 29.546875 -25.59375 C 28.285156 -27.007812 26.460938 -27.71875 24.078125 -27.71875 C 21.421875 -27.71875 19.304688 -26.894531 17.734375 -25.25 C 16.160156 -23.613281 15.375 -21.175781 15.375 -17.9375 L 15.375 0 L 4.859375 0 L 4.859375 -36.296875 L 14.90625 -36.296875 L 14.90625 -32.046875 C 16.300781 -33.566406 18.03125 -34.742188 20.09375 -35.578125 C 22.164062 -36.410156 24.4375 -36.828125 26.90625 -36.828125 Z M 26.90625 -36.828125 "/></g></g></g><g fill="#4caf50" fill-opacity="1"><g transform="translate(429.227039, 1167.881701)"><g><path d="M 40.40625 -18.015625 C 40.40625 -17.878906 40.335938 -16.929688 40.203125 -15.171875 L 12.75 -15.171875 C 13.238281 -12.921875 14.40625 -11.144531 16.25 -9.84375 C 18.09375 -8.539062 20.390625 -7.890625 23.140625 -7.890625 C 25.023438 -7.890625 26.695312 -8.171875 28.15625 -8.734375 C 29.625 -9.296875 30.988281 -10.1875 32.25 -11.40625 L 37.84375 -5.328125 C 34.425781 -1.410156 29.429688 0.546875 22.859375 0.546875 C 18.773438 0.546875 15.15625 -0.25 12 -1.84375 C 8.851562 -3.445312 6.425781 -5.664062 4.71875 -8.5 C 3.007812 -11.332031 2.15625 -14.546875 2.15625 -18.140625 C 2.15625 -21.691406 3 -24.894531 4.6875 -27.75 C 6.375 -30.613281 8.6875 -32.84375 11.625 -34.4375 C 14.570312 -36.03125 17.867188 -36.828125 21.515625 -36.828125 C 25.066406 -36.828125 28.28125 -36.0625 31.15625 -34.53125 C 34.039062 -33.007812 36.300781 -30.816406 37.9375 -27.953125 C 39.582031 -25.097656 40.40625 -21.785156 40.40625 -18.015625 Z M 21.578125 -28.875 C 19.203125 -28.875 17.203125 -28.195312 15.578125 -26.84375 C 13.960938 -25.5 12.972656 -23.65625 12.609375 -21.3125 L 30.484375 -21.3125 C 30.128906 -23.601562 29.140625 -25.4375 27.515625 -26.8125 C 25.898438 -28.1875 23.921875 -28.875 21.578125 -28.875 Z M 21.578125 -28.875 "/></g></g></g><g fill="#4caf50" fill-opacity="1"><g transform="translate(471.786282, 1167.881701)"><g><path d="M 26.3125 -36.828125 C 29.675781 -36.828125 32.738281 -36.050781 35.5 -34.5 C 38.269531 -32.945312 40.441406 -30.765625 42.015625 -27.953125 C 43.597656 -25.148438 44.390625 -21.878906 44.390625 -18.140625 C 44.390625 -14.410156 43.597656 -11.140625 42.015625 -8.328125 C 40.441406 -5.515625 38.269531 -3.332031 35.5 -1.78125 C 32.738281 -0.226562 29.675781 0.546875 26.3125 0.546875 C 21.675781 0.546875 18.03125 -0.914062 15.375 -3.84375 L 15.375 13.078125 L 4.859375 13.078125 L 4.859375 -36.296875 L 14.90625 -36.296875 L 14.90625 -32.109375 C 17.507812 -35.253906 21.3125 -36.828125 26.3125 -36.828125 Z M 24.484375 -8.09375 C 27.179688 -8.09375 29.394531 -9.003906 31.125 -10.828125 C 32.863281 -12.648438 33.734375 -15.085938 33.734375 -18.140625 C 33.734375 -21.203125 32.863281 -23.644531 31.125 -25.46875 C 29.394531 -27.289062 27.179688 -28.203125 24.484375 -28.203125 C 21.785156 -28.203125 19.570312 -27.289062 17.84375 -25.46875 C 16.113281 -23.644531 15.25 -21.203125 15.25 -18.140625 C 15.25 -15.085938 16.113281 -12.648438 17.84375 -10.828125 C 19.570312 -9.003906 21.785156 -8.09375 24.484375 -8.09375 Z M 24.484375 -8.09375 "/></g></g></g><g fill="#4caf50" fill-opacity="1"><g transform="translate(518.324909, 1167.881701)"><g><path d="M 19.5 -36.828125 C 25.113281 -36.828125 29.425781 -35.488281 32.4375 -32.8125 C 35.457031 -30.132812 36.96875 -26.097656 36.96875 -20.703125 L 36.96875 0 L 27.109375 0 L 27.109375 -4.515625 C 25.128906 -1.140625 21.441406 0.546875 16.046875 0.546875 C 13.265625 0.546875 10.847656 0.0703125 8.796875 -0.875 C 6.753906 -1.820312 5.191406 -3.125 4.109375 -4.78125 C 3.035156 -6.445312 2.5 -8.335938 2.5 -10.453125 C 2.5 -13.828125 3.769531 -16.476562 6.3125 -18.40625 C 8.851562 -20.34375 12.773438 -21.3125 18.078125 -21.3125 L 26.4375 -21.3125 C 26.4375 -23.601562 25.738281 -25.367188 24.34375 -26.609375 C 22.957031 -27.847656 20.867188 -28.46875 18.078125 -28.46875 C 16.140625 -28.46875 14.238281 -28.160156 12.375 -27.546875 C 10.507812 -26.941406 8.925781 -26.125 7.625 -25.09375 L 3.84375 -32.4375 C 5.820312 -33.832031 8.191406 -34.910156 10.953125 -35.671875 C 13.722656 -36.441406 16.570312 -36.828125 19.5 -36.828125 Z M 18.6875 -6.546875 C 20.476562 -6.546875 22.070312 -6.957031 23.46875 -7.78125 C 24.863281 -8.613281 25.851562 -9.84375 26.4375 -11.46875 L 26.4375 -15.171875 L 19.21875 -15.171875 C 14.90625 -15.171875 12.75 -13.753906 12.75 -10.921875 C 12.75 -9.578125 13.273438 -8.507812 14.328125 -7.71875 C 15.390625 -6.9375 16.84375 -6.546875 18.6875 -6.546875 Z M 18.6875 -6.546875 "/></g></g></g><g fill="#4caf50" fill-opacity="1"><g transform="translate(559.939879, 1167.881701)"><g><path d="M 4.859375 -50.046875 L 15.375 -50.046875 L 15.375 0 L 4.859375 0 Z M 4.859375 -50.046875 "/></g></g></g></svg>